<?xml version="1.0" encoding="UTF-8" standalone="no"?>

<svg width="275" height="32" fill="none" xmlns="http://www.w3.org/2000/svg" src="../images/zt_logo_white.svg"><g clip-path="url(#clip0_51_956)" fill="#000"><path d="M45.4 13.343c-.382-2.173-2.103-3.416-4.318-3.416-2.97 0-5.061 2.279-5.061 6.375 0 4.168 2.102 6.375 5.053 6.375 2.17 0 3.907-1.198 4.325-3.324l3.316.016c-.507 3.466-3.368 6.259-7.686 6.259-4.787 0-8.316-3.466-8.316-9.326s3.573-9.325 8.316-9.325c4.026 0 7.127 2.338 7.686 6.374l-3.316-.008zM54.43 25.373h-3.21V7.216h3.21v18.157zM56.767 18.617c0-4.22 2.535-7.04 6.527-7.04 3.991 0 6.524 2.82 6.524 7.04 0 4.22-2.535 7.021-6.524 7.021s-6.527-2.811-6.527-7.02zm9.796 0c0-2.494-1.08-4.488-3.253-4.488-2.174 0-3.288 1.995-3.288 4.488 0 2.494 1.08 4.467 3.288 4.467 2.207 0 3.253-1.986 3.253-4.475v.008zM80.834 11.756h3.208v13.617h-3.111v-2.42h-.142c-.62 1.524-2.055 2.596-4.094 2.596-2.678 0-4.54-1.84-4.54-5.124v-8.671h3.208v8.172c0 1.729 1.03 2.82 2.572 2.82 1.42 0 2.89-1.028 2.89-3.104l.009-7.886zM86.407 18.58c0-4.538 2.473-7.002 5.62-7.002 2.402 0 3.403 1.445 3.892 2.43h.134V7.216h3.216v18.157h-3.153v-2.147h-.194c-.505.993-1.561 2.386-3.9 2.386-3.213 0-5.615-2.543-5.615-7.032zm9.707-.015c0-2.644-1.136-4.354-3.2-4.354-2.137 0-3.236 1.818-3.236 4.354 0 2.535 1.117 4.414 3.235 4.414 2.05 0 3.2-1.773 3.2-4.414zM109.223 14.237h-2.827v11.136h-3.211V14.237h-2.01v-2.48h2.01v-1.288c0-2.746 1.889-4.105 4.257-4.105a8 8 0 0 1 2.438.373l-.649 2.484a4.062 4.062 0 0 0-1.196-.195c-1.198 0-1.639.594-1.639 1.656v1.074h2.827v2.48zM114.576 25.373h-3.211V7.216h3.211v18.157zM116.859 21.552c0-3.069 2.528-3.857 5.169-4.14 2.402-.264 3.369-.303 3.369-1.225v-.053c0-1.337-.815-2.102-2.305-2.102-1.576 0-2.473.788-2.793 1.729l-2.996-.426c.71-2.483 2.907-3.76 5.781-3.76 2.599 0 5.531 1.083 5.531 4.68v9.115h-3.084V23.5h-.105c-.586 1.142-1.864 2.144-4 2.144-2.607.002-4.567-1.417-4.567-4.092zm8.545-1.05v-1.606c-.415.336-2.102.549-2.943.665-1.434.204-2.506.717-2.506 1.95 0 1.18.956 1.791 2.294 1.791 1.934-.013 3.155-1.298 3.155-2.814v.013zM131.467 11.756h3.111v2.268h.142a3.412 3.412 0 0 1 3.36-2.465c.386.001.771.031 1.151.09v2.953a6.074 6.074 0 0 0-1.487-.186c-1.766 0-3.069 1.221-3.069 2.95v8.007h-3.208V11.756zM139.841 18.643c0-4.204 2.544-7.065 6.446-7.065 3.35 0 6.222 2.102 6.222 6.879v.985h-9.486c.026 2.331 1.401 3.695 3.477 3.695 1.382 0 2.446-.602 2.89-1.755l2.998.338c-.567 2.366-2.748 3.918-5.923 3.918-4.115 0-6.624-2.722-6.624-6.995zm9.594-1.366c-.019-1.84-1.262-3.198-3.104-3.198-1.915 0-3.2 1.461-3.297 3.198h6.401zM161.474 23.323l9.31-13.348h-9.362v-2.76h13.438v2.05l-9.3 13.357h9.355v2.759h-13.441v-2.058zM176.628 18.643c0-4.204 2.546-7.065 6.446-7.065 3.35 0 6.222 2.102 6.222 6.879v.985h-9.494c.029 2.331 1.403 3.695 3.477 3.695 1.382 0 2.446-.602 2.89-1.755l2.998.338c-.567 2.366-2.748 3.918-5.922 3.918-4.108 0-6.617-2.722-6.617-6.995zm9.594-1.366c-.019-1.84-1.259-3.198-3.104-3.198-1.915 0-3.2 1.461-3.297 3.198h6.401zM191.259 11.756h3.114v2.268h.142a3.398 3.398 0 0 1 3.358-2.465c.386.002.772.031 1.154.09v2.953a6.115 6.115 0 0 0-1.49-.187c-1.764 0-3.067 1.222-3.067 2.951v8.007h-3.211V11.756zM199.26 18.617c0-4.22 2.536-7.04 6.525-7.04 3.989 0 6.524 2.82 6.524 7.04 0 4.22-2.535 7.021-6.524 7.021s-6.525-2.811-6.525-7.02zm9.796 0c0-2.494-1.082-4.488-3.253-4.488-2.17 0-3.29 1.995-3.29 4.488 0 2.494 1.083 4.467 3.29 4.467 2.208 0 3.253-1.986 3.253-4.475v.008zM217.064 7.216h14.484v2.759h-5.61v15.398h-3.264V9.975h-5.61v-2.76zM232.024 11.756h3.111v2.268h.142a3.412 3.412 0 0 1 3.361-2.465c.385.001.77.031 1.15.09v2.953a6.081 6.081 0 0 0-1.489-.186c-1.764 0-3.067 1.221-3.067 2.95v8.007h-3.208V11.756zM249.855 11.756h3.209v13.617h-3.112v-2.42h-.152c-.62 1.524-2.057 2.596-4.097 2.596-2.675 0-4.538-1.84-4.538-5.124v-8.671h3.209v8.172c0 1.729 1.03 2.82 2.572 2.82 1.419 0 2.891-1.028 2.891-3.104l.018-7.886zM263.448 15.674c-.247-.896-1.027-1.702-2.507-1.702-1.34 0-2.365.638-2.349 1.56 0 .789.539 1.267 1.924 1.577l2.323.496c2.569.56 3.82 1.748 3.828 3.68 0 2.58-2.412 4.343-5.815 4.343-3.342 0-5.445-1.482-5.841-3.981l3.127-.302c.276 1.224 1.232 1.863 2.704 1.863 1.526 0 2.535-.702 2.535-1.632 0-.77-.583-1.277-1.839-1.55l-2.323-.49c-2.628-.54-3.839-1.852-3.829-3.838 0-2.518 2.223-4.13 5.505-4.13 3.19 0 5.035 1.47 5.479 3.775l-2.922.331zM275.367 14.237h-2.685v7.04c0 1.295.646 1.576 1.453 1.576.317-.004.633-.047.941-.126l.541 2.51a6.44 6.44 0 0 1-1.889.317c-2.41.074-4.273-1.187-4.254-3.75v-7.57h-1.935v-2.48h1.935V8.49h3.208v3.264h2.685v2.483zM5.255 15.742c1.9-.107 2.665-.935 2.665-3.116V3.992a13.401 13.401 0 0 1-5.292 1.962L0 6.322v9.42h5.255zM7.92 20.446c0-2.286-.846-3.085-2.956-3.127H.113c.754 6.075 4.911 10.122 7.807 12.248v-9.12zM21.644 5.954a13.367 13.367 0 0 1-7.22-3.458L12.128 0 9.86 2.483c-.026.026-.15.153-.363.34v9.882c.019 2.12.789 2.93 2.66 3.037h6.43l-2.589-2.585 1.117-1.114 4.488 4.488-4.488 4.49-1.117-1.114 2.589-2.588H12.45c-2.086.042-2.935.823-2.954 3.048v10.248c.705.434 1.18.673 1.267.715l1.374.67 1.372-.67c.439-.215 10.773-5.381 10.773-15.974V6.33l-2.638-.376z"></path></g><defs><clipPath id="clip0_51_956"><path fill="#000" d="M0 0h275v32H0z"></path></clipPath></defs></svg>
