<?xml version="1.0" encoding="UTF-8" standalone="no"?>

<svg data-v-7334d8af="" width="160" height="24" viewBox="0 0 275 32" fill="none" xmlns="http://www.w3.org/2000/svg" class=""><g data-v-7334d8af="" clip-path="url(#clip0_51_953)"><path data-v-7334d8af="" d="M45.3992 13.3434C45.0182 11.1703 43.2971 9.9274 41.082 9.9274C38.1127 9.9274 36.021 12.2056 36.021 16.3022C36.021 20.4697 38.1231 22.677 41.074 22.677C43.2445 22.677 44.9814 21.4788 45.3992 19.353L48.7154 19.3687C48.2082 22.8347 45.3467 25.6278 41.0294 25.6278C36.2417 25.6278 32.7128 22.1619 32.7128 16.3022C32.7128 10.4424 36.2864 6.97652 41.0294 6.97652C45.055 6.97652 48.1557 9.31516 48.7154 13.3513L45.3992 13.3434Z" fill="#222222"></path><path data-v-7334d8af="" d="M54.4306 25.373H51.2196V7.21568H54.4306V25.373Z" fill="#222222"></path><path data-v-7334d8af="" d="M56.7667 18.6172C56.7667 14.3971 59.3023 11.5776 63.2938 11.5776C67.2853 11.5776 69.8184 14.3971 69.8184 18.6172C69.8184 22.8373 67.2826 25.6384 63.2938 25.6384C59.305 25.6384 56.7667 22.8268 56.7667 18.6172ZM66.5626 18.6172C66.5626 16.1235 65.4827 14.1291 63.3096 14.1291C61.1365 14.1291 60.0224 16.1235 60.0224 18.6172C60.0224 21.1109 61.1023 23.0843 63.3096 23.0843C65.5168 23.0843 66.5626 21.0977 66.5626 18.6093V18.6172Z" fill="#222222"></path><path data-v-7334d8af="" d="M80.8336 11.7563H84.042V25.373H80.9309V22.9529H80.789C80.1688 24.477 78.7341 25.549 76.695 25.549C74.0174 25.549 72.1544 23.7096 72.1544 20.425V11.7536H75.3628V19.9258C75.3628 21.6548 76.3929 22.7453 77.9353 22.7453C79.3543 22.7453 80.8258 21.7179 80.8258 19.642L80.8336 11.7563Z" fill="#222222"></path><path data-v-7334d8af="" d="M86.407 18.5804C86.407 14.0424 88.8796 11.5776 92.0276 11.5776C94.4293 11.5776 95.4305 13.0228 95.9192 14.0082H96.0532V7.21568H99.2695V25.373H96.1163V23.2262H95.9218C95.4173 24.2194 94.361 25.6121 92.0224 25.6121C88.8087 25.6121 86.407 23.0685 86.407 18.5804ZM96.1136 18.5647C96.1136 15.9212 94.9785 14.2106 92.9132 14.2106C90.7769 14.2106 89.6785 16.0289 89.6785 18.5647C89.6785 21.1004 90.7953 22.9792 92.9132 22.9792C94.9628 22.9792 96.1136 21.2055 96.1136 18.5647Z" fill="#222222"></path><path data-v-7334d8af="" d="M109.223 14.2368H106.396V25.3729H103.185V14.2368H101.175V11.7562H103.185V10.4687C103.185 7.72276 105.074 6.36422 107.442 6.36422C108.269 6.36179 109.091 6.48771 109.88 6.73739L109.231 9.22055C108.845 9.09634 108.441 9.0308 108.035 9.0261C106.837 9.0261 106.396 9.61997 106.396 10.6816V11.7562H109.223V14.2368Z" fill="#222222"></path><path data-v-7334d8af="" d="M114.576 25.373H111.365V7.21568H114.576V25.373Z" fill="#222222"></path><path data-v-7334d8af="" d="M116.859 21.5523C116.859 18.4832 119.387 17.6949 122.028 17.4111C124.43 17.1483 125.397 17.1089 125.397 16.1866V16.134C125.397 14.7966 124.582 14.0319 123.092 14.0319C121.516 14.0319 120.619 14.8202 120.299 15.7609L117.303 15.3352C118.013 12.8521 120.21 11.575 123.084 11.575C125.683 11.575 128.615 12.6576 128.615 16.2549V25.3703H125.531V23.4995H125.426C124.84 24.6425 123.562 25.6436 121.426 25.6436C118.819 25.6463 116.859 24.2273 116.859 21.5523ZM125.404 20.5012V18.8957C124.989 19.2321 123.302 19.4449 122.461 19.5606C121.027 19.7655 119.955 20.2779 119.955 21.5103C119.955 22.6901 120.911 23.3024 122.249 23.3024C124.183 23.2892 125.404 22.0043 125.404 20.4881V20.5012Z" fill="#222222"></path><path data-v-7334d8af="" d="M131.467 11.7563H134.578V14.024H134.72C134.929 13.2999 135.373 12.6656 135.981 12.2197C136.588 11.7739 137.327 11.5417 138.08 11.5592C138.466 11.5604 138.851 11.5903 139.231 11.6486V14.6021C138.745 14.4788 138.246 14.4162 137.744 14.4156C135.978 14.4156 134.675 15.6374 134.675 17.3665V25.373H131.467V11.7563Z" fill="#222222"></path><path data-v-7334d8af="" d="M139.841 18.6435C139.841 14.4392 142.385 11.5776 146.287 11.5776C149.637 11.5776 152.509 13.6798 152.509 18.4569V19.4423H143.023C143.049 21.773 144.424 23.1368 146.5 23.1368C147.882 23.1368 148.946 22.5351 149.39 21.3816L152.388 21.7205C151.821 24.0855 149.64 25.6384 146.465 25.6384C142.35 25.6384 139.841 22.9161 139.841 18.6435ZM149.435 17.2771C149.416 15.4377 148.173 14.0792 146.331 14.0792C144.416 14.0792 143.131 15.5402 143.034 17.2771H149.435Z" fill="#222222"></path><path data-v-7334d8af="" d="M161.474 23.3234L170.784 9.97476H161.422V7.21568H174.86V9.26523L165.56 22.6218H174.915V25.3809H161.474V23.3234Z" fill="#222222"></path><path data-v-7334d8af="" d="M176.628 18.6435C176.628 14.4392 179.174 11.5776 183.074 11.5776C186.424 11.5776 189.296 13.6798 189.296 18.4569V19.4423H179.802C179.831 21.773 181.205 23.1368 183.279 23.1368C184.661 23.1368 185.725 22.5351 186.169 21.3816L189.167 21.7205C188.6 24.0855 186.419 25.6384 183.245 25.6384C179.137 25.6384 176.628 22.9161 176.628 18.6435ZM186.222 17.2771C186.203 15.4377 184.963 14.0792 183.118 14.0792C181.203 14.0792 179.918 15.5402 179.821 17.2771H186.222Z" fill="#222222"></path><path data-v-7334d8af="" d="M191.259 11.7563H194.373V14.024H194.515C194.722 13.299 195.164 12.6633 195.772 12.2172C196.38 11.771 197.119 11.5395 197.873 11.5592C198.259 11.5605 198.645 11.5903 199.027 11.6486V14.6021C198.539 14.4788 198.039 14.4162 197.537 14.4155C195.773 14.4155 194.47 15.6374 194.47 17.3664V25.373H191.259V11.7563Z" fill="#222222"></path><path data-v-7334d8af="" d="M199.26 18.6172C199.26 14.3971 201.796 11.5776 205.785 11.5776C209.774 11.5776 212.309 14.3971 212.309 18.6172C212.309 22.8373 209.774 25.6384 205.785 25.6384C201.796 25.6384 199.26 22.8268 199.26 18.6172ZM209.056 18.6172C209.056 16.1235 207.974 14.1291 205.803 14.1291C203.633 14.1291 202.513 16.1235 202.513 18.6172C202.513 21.1109 203.596 23.0843 205.803 23.0843C208.011 23.0843 209.056 21.0977 209.056 18.6093V18.6172Z" fill="#222222"></path><path data-v-7334d8af="" d="M217.064 7.21568H231.548V9.97476H225.938V25.373H222.674V9.97476H217.064V7.21568Z" fill="#222222"></path><path data-v-7334d8af="" d="M232.024 11.7563H235.135V14.024H235.277C235.486 13.2999 235.93 12.6656 236.538 12.2197C237.146 11.7739 237.884 11.5417 238.638 11.5592C239.023 11.5604 239.408 11.5903 239.788 11.6486V14.6021C239.301 14.4787 238.801 14.416 238.299 14.4156C236.535 14.4156 235.232 15.6374 235.232 17.3665V25.373H232.024V11.7563Z" fill="#222222"></path><path data-v-7334d8af="" d="M249.855 11.7563H253.064V25.373H249.952V22.9529H249.8C249.18 24.477 247.743 25.549 245.703 25.549C243.028 25.549 241.165 23.7096 241.165 20.425V11.7536H244.374V19.9258C244.374 21.6548 245.404 22.7453 246.946 22.7453C248.365 22.7453 249.837 21.7179 249.837 19.642L249.855 11.7563Z" fill="#222222"></path><path data-v-7334d8af="" d="M263.448 15.6742C263.201 14.7782 262.421 13.9715 260.941 13.9715C259.601 13.9715 258.576 14.61 258.592 15.5323C258.592 16.3206 259.131 16.7988 260.516 17.1089L262.839 17.6055C265.408 18.1652 266.659 19.3529 266.667 21.2843C266.667 23.8647 264.255 25.6279 260.852 25.6279C257.51 25.6279 255.407 24.1459 255.011 21.6469L258.138 21.3447C258.414 22.5692 259.37 23.2078 260.842 23.2078C262.368 23.2078 263.377 22.5062 263.377 21.576C263.377 20.8061 262.794 20.2989 261.538 20.0257L259.215 19.5369C256.587 18.9956 255.376 17.6843 255.386 15.6978C255.386 13.1805 257.609 11.5671 260.891 11.5671C264.081 11.5671 265.926 13.0386 266.37 15.3431L263.448 15.6742Z" fill="#222222"></path><path data-v-7334d8af="" d="M275.367 14.2369H272.682V21.2764C272.682 22.5718 273.328 22.853 274.135 22.853C274.452 22.8486 274.768 22.8063 275.076 22.7269L275.617 25.2363C275.007 25.4359 274.37 25.543 273.728 25.5543C271.318 25.6278 269.455 24.3666 269.474 21.8046V14.2342H267.539V11.7537H269.474V8.49008H272.682V11.7537H275.367V14.2369Z" fill="#222222"></path><path data-v-7334d8af="" d="M5.25538 15.7425C7.1552 15.6348 7.91989 14.807 7.91989 12.6261V3.99152C6.3152 5.0141 4.51109 5.68323 2.62769 5.95439L0 6.32224V15.3694C0 15.4955 0 15.619 0 15.7425H5.25538Z" fill="#FBAD41"></path><path data-v-7334d8af="" d="M7.91989 20.4461C7.91989 18.16 7.07378 17.3612 4.96374 17.3191H0.113037C0.867184 23.3944 5.02418 27.441 7.91989 29.5668V20.4461Z" fill="#FBAD41"></path><path data-v-7334d8af="" d="M21.6443 5.95438C18.9406 5.56653 16.4206 4.35967 14.4234 2.4963L12.1295 0L9.85911 2.48322C9.83283 2.50949 9.70936 2.63557 9.49652 2.82213V12.7049C9.51491 14.8254 10.2847 15.6348 12.1556 15.7425H18.5857L15.9974 13.1569L17.1141 12.0427L21.6022 16.5308L17.1141 21.0215L15.9974 19.9074L18.5857 17.3191H12.45C10.3636 17.3612 9.51491 18.1416 9.49652 20.3672V30.6152C10.2007 31.0488 10.6763 31.2879 10.763 31.3299L12.1373 32L13.509 31.3299C13.9478 31.1145 24.2825 25.9485 24.2825 15.3563V6.33012L21.6443 5.95438Z" fill="#F6821F"></path></g><defs data-v-7334d8af=""><clipPath data-v-7334d8af="" id="clip0_51_953"><rect data-v-7334d8af="" width="275" height="32" fill="white"></rect></clipPath></defs></svg>
